mtllib HalfCornellBox.mtl

# Object floor
v  -1.01  0.00   0.99
v   1.00  0.00   0.99
v   1.00  0.00  -1.04
v  -0.99  0.00  -1.04

vt 0.0 1.0 0.0
vt 1.0 1.0 0.0
vt 1.0 0.0 0.0
vt 0.0 0.0 0.0

vn 0.00 1.00 0.00

usemtl floor
f -4/-4/-1 -3/-3/-1 -2/-2/-1 -1/-1/-1

# Object backwall  
v  -0.99  0.00  -1.04 
v   1.00  0.00  -1.04
v   1.00  1.99  -1.04
v  -1.02  1.99  -1.04

vn 0.00 0.00 1.00

usemtl backwall
f -4/-4/-1 -3/-3/-1 -2/-2/-1 -1/-1/-1

## Object leftWall   
v  -1.01  0.00   0.99
v  -0.99  0.00  -1.04
v  -1.02  1.99  -1.04
v  -1.02  1.99   0.99

vn 1.00 0.00 0.00

usemtl leftWall
f -4/-4/-1 -3/-3/-1 -2/-2/-1 -1/-1/-1